<svg width="30" height="30" viewBox="0 0 30 30" fill="none" xmlns="http://www.w3.org/2000/svg">
<path d="M14.9999 0C11.4382 0.000147697 7.99268 1.26766 5.27995 3.57575C2.56722 5.88383 0.764287 9.08187 0.193739 12.5976C-0.376808 16.1134 0.322265 19.7175 2.16587 22.765C4.00948 25.8125 6.87732 28.1045 10.2562 29.231C11.0062 29.3623 11.2875 28.9123 11.2875 28.5185C11.2875 28.1623 11.2687 26.981 11.2687 25.7248C7.49999 26.4185 6.52499 24.8061 6.225 23.9624C5.89211 23.1418 5.36442 22.4146 4.68751 21.8436C4.16251 21.5623 3.41252 20.8686 4.66874 20.8499C5.14842 20.9019 5.60848 21.0688 6.00994 21.3365C6.41141 21.6041 6.74244 21.9646 6.97499 22.3873C7.18015 22.7559 7.45601 23.0803 7.78677 23.3421C8.11753 23.6038 8.49669 23.7977 8.90253 23.9127C9.30836 24.0276 9.73289 24.0614 10.1518 24.012C10.5707 23.9626 10.9757 23.831 11.3437 23.6248C11.4086 22.8623 11.7485 22.1493 12.3 21.6186C8.96248 21.2436 5.475 19.9498 5.475 14.2124C5.45392 12.7217 6.00403 11.2793 7.01249 10.1812C6.55392 8.88556 6.60757 7.46367 7.16249 6.20625C7.16249 6.20625 8.41869 5.81249 11.2875 7.74374C13.7419 7.06871 16.333 7.06871 18.7874 7.74374C21.6561 5.79375 22.9124 6.20625 22.9124 6.20625C23.4674 7.46365 23.521 8.88557 23.0624 10.1812C24.0739 11.2775 24.6245 12.7211 24.5999 14.2124C24.5999 19.9686 21.0936 21.2436 17.7562 21.6186C18.1141 21.9815 18.3898 22.4171 18.5645 22.8959C18.7392 23.3747 18.8089 23.8855 18.7687 24.3936C18.7687 26.3999 18.7499 28.0123 18.7499 28.5186C18.7499 28.9124 19.0311 29.3811 19.7811 29.2311C23.1541 28.0954 26.0137 25.798 27.8495 22.7489C29.6852 19.6999 30.3776 16.0976 29.8031 12.5853C29.2286 9.0729 27.4246 5.87902 24.7131 3.57374C22.0015 1.26847 18.559 0.00185235 14.9999 0Z" fill="black"/>
</svg>
