<svg xmlns="http://www.w3.org/2000/svg" viewBox="0 0 512 512" width="512" height="512" preserveAspectRatio="xMidYMid meet" style="width: 100%; height: 100%; transform: translate3d(0px, 0px, 0px); content-visibility: visible;"><defs><clipPath id="__lottie_element_2"><rect width="512" height="512" x="0" y="0"/></clipPath></defs><g clip-path="url(#__lottie_element_2)"><g transform="matrix(0.9200000166893005,0,0,0.9200000166893005,158.94691467285156,470.1659240722656)" opacity="1" style="display: block;"><g opacity="1" transform="matrix(1,0,0,1,0,0)"><path fill="rgb(194,28,80)" fill-opacity="1" d=" M-6.092637538909912,-22.776220321655273 C-6.092637538909912,-22.776220321655273 -27.062999725341797,3.5 -17.687999725341797,17.875 C-5.813000202178955,36.125 9.31191635131836,3.515943765640259 19.874916076660156,-9.60905647277832"/><path stroke-linecap="round" stroke-linejoin="round" fill-opacity="0" stroke="rgb(77,15,10)" stroke-opacity="1" stroke-width="6" d=" M-6.092637538909912,-22.776220321655273 C-6.092637538909912,-22.776220321655273 -27.062999725341797,3.5 -17.687999725341797,17.875 C-5.813000202178955,36.125 9.31191635131836,3.515943765640259 19.874916076660156,-9.60905647277832"/></g></g><g transform="matrix(0.9164145588874817,0.09100767970085144,-0.09121329337358475,0.9145403504371643,87.36529541015625,368.2922668457031)" opacity="1" style="display: block;"><g opacity="1" transform="matrix(1,0,0,1,0,0)"><path fill="rgb(194,28,80)" fill-opacity="1" d=" M27.910999298095703,-20.610000610351562 C27.910999298095703,-20.610000610351562 -23.865999221801758,-16.42099952697754 -27.679000854492188,9.128999710083008 C-31.670000076293945,35.869998931884766 17.038000106811523,7.517000198364258 17.038000106811523,7.517000198364258"/><path stroke-linecap="round" stroke-linejoin="round" fill-opacity="0" stroke="rgb(77,15,10)" stroke-opacity="1" stroke-width="6" d=" M27.910999298095703,-20.610000610351562 C27.910999298095703,-20.610000610351562 -23.865999221801758,-16.42099952697754 -27.679000854492188,9.128999710083008 C-31.670000076293945,35.869998931884766 17.038000106811523,7.517000198364258 17.038000106811523,7.517000198364258"/></g></g><g transform="matrix(0.9209310412406921,-0.004639731254428625,0.0046302322298288345,0.919045627117157,6.0303215980529785,44.06844711303711)" opacity="1" style="display: block;"><g opacity="1" transform="matrix(1,0,0,1,255.72500610351562,333.8429870605469)"><path fill="rgb(255,87,148)" fill-opacity="1" d=" M165.41099548339844,-10.053999900817871 C165.41099548339844,81.30000305175781 91.35399627685547,155.35699462890625 0,155.35699462890625 C-91.35399627685547,155.35699462890625 -165.41099548339844,81.30000305175781 -165.41099548339844,-10.053999900817871 C-165.41099548339844,-66.88400268554688 -134.73199462890625,-119.27999877929688 -88.93399810791016,-141.4340057373047 C-54.125999450683594,-158.27099609375 -24.089000701904297,-158.18299865722656 12.045000076293945,-149.9149932861328 C55.75400161743164,-139.91299438476562 74.43199920654297,-145.2790069580078 112.1780014038086,-121.1989974975586 C142.2519989013672,-102.01300048828125 165.41099548339844,-56.57099914550781 165.41099548339844,-10.053999900817871z"/></g><g opacity="1" transform="matrix(1,0,0,1,251.83700561523438,340.8590087890625)"><path fill="rgb(244,34,110)" fill-opacity="1" d=" M157.09500122070312,-9.628000259399414 C157.09500122070312,77.85900115966797 86.76100158691406,148.781005859375 0,148.781005859375 C-86.76100158691406,148.781005859375 -157.09500122070312,77.85900115966797 -157.09500122070312,-9.628000259399414 C-157.09500122070312,-64.052001953125 -127.95700073242188,-114.23100280761719 -84.46199798583984,-135.44700622558594 C-51.40399932861328,-151.57200622558594 -22.878000259399414,-151.48599243164062 11.439000129699707,-143.5679931640625 C52.95000076293945,-133.99000549316406 70.69000244140625,-139.12899780273438 106.53800201416016,-116.06800079345703 C135.10000610351562,-97.69400024414062 157.09500122070312,-54.17599868774414 157.09500122070312,-9.628000259399414z"/></g><g opacity="0.3" transform="matrix(1,0,0,1,276.2130126953125,226.91000366210938)"><path fill="rgb(255,87,148)" fill-opacity="1" d=" M5.965000152587891,-41.45100021362305 C53.26900100708008,-31.83300018310547 90.07599639892578,-8.048999786376953 85.66000366210938,15.960000038146973 C81.24400329589844,39.96900177001953 39.31700134277344,51.63399887084961 -7.986999988555908,42.01599884033203 C-55.29100036621094,32.39799880981445 -90.05799865722656,5.138999938964844 -85.64199829101562,-18.8700008392334 C-81.22599792480469,-42.87900161743164 -41.3390007019043,-51.069000244140625 5.965000152587891,-41.45100021362305z"/></g><g opacity="0.3" transform="matrix(1,0,0,1,255.7239990234375,382.2380065917969)"><path fill="rgb(77,15,10)" fill-opacity="1" d=" M165.41200256347656,-58.44599914550781 C165.41200256347656,32.902000427246094 91.35299682617188,106.96099853515625 0.004999999888241291,106.96099853515625 C-91.35299682617188,106.96099853515625 -165.41200256347656,32.902000427246094 -165.41200256347656,-58.44599914550781 C-165.41200256347656,-75.2249984741211 -162.73699951171875,-91.61799621582031 -157.79299926757812,-106.96099853515625 C-157.79299926757812,-106.96099853515625 -157.78199768066406,-106.96099853515625 -157.78199768066406,-106.96099853515625 C-157.78199768066406,-106.96099853515625 -176.65199279785156,-8.809000015258789 -73.60600280761719,53.82400131225586 C14.692999839782715,107.49400329589844 164.76699829101562,55.125 162.2790069580078,-88.4540023803711 C164.3090057373047,-78.68000030517578 165.41200256347656,-68.58399963378906 165.41200256347656,-58.44599914550781z"/></g><g opacity="1" transform="matrix(1,0,0,1,255.72500610351562,333.8429870605469)"><path stroke-linecap="round" stroke-linejoin="round" fill-opacity="0" stroke="rgb(77,15,10)" stroke-opacity="1" stroke-width="6" d=" M165.41099548339844,-10.053999900817871 C165.41099548339844,81.30000305175781 91.35399627685547,155.35699462890625 0,155.35699462890625 C-91.35399627685547,155.35699462890625 -165.41099548339844,81.30000305175781 -165.41099548339844,-10.053999900817871 C-165.41099548339844,-66.88400268554688 -134.73199462890625,-119.27999877929688 -88.93399810791016,-141.4340057373047 C-54.125999450683594,-158.27099609375 -24.089000701904297,-158.18299865722656 12.045000076293945,-149.9149932861328 C55.75400161743164,-139.91299438476562 74.43199920654297,-145.2790069580078 112.1780014038086,-121.1989974975586 C142.2519989013672,-102.01300048828125 165.41099548339844,-56.57099914550781 165.41099548339844,-10.053999900817871z"/></g><g opacity="1" transform="matrix(1,0,0,1,0,0)"><g opacity="1" transform="matrix(1,0,0,1,379.4580078125,245.65499877929688)"><path stroke-linecap="round" stroke-linejoin="round" fill-opacity="0" stroke="rgb(255,255,255)" stroke-opacity="1" stroke-width="6" d=" M-6.797999858856201,-7.914000034332275 C-1.3869999647140503,-2.5460000038146973 3.994999885559082,3.808000087738037 6.797999858856201,7.914000034332275"/></g><g opacity="1" transform="matrix(1,0,0,1,360.5589904785156,227.09300231933594)"><path stroke-linecap="round" stroke-linejoin="round" fill-opacity="0" stroke="rgb(255,255,255)" stroke-opacity="1" stroke-width="6" d=" M-3.0250000953674316,-2.372999906539917 C-3.0250000953674316,-2.372999906539917 -0.6299999952316284,-0.6859999895095825 3.0250000953674316,2.372999906539917"/></g></g></g><g transform="matrix(0.9200000166893005,0,0,0.9200000166893005,316.3294982910156,484.7792053222656)" opacity="1" style="display: block;"><g opacity="1" transform="matrix(1,0,0,1,0,0)"><path fill="rgb(194,28,80)" fill-opacity="1" d=" M-18.74095344543457,-13.726073265075684 C-18.74095344543457,-13.726073265075684 -13.687999725341797,22 7.625,22.25 C30.125,22.5 12.613917350769043,-5.71372127532959 5.238917350769043,-22.713720321655273"/><path stroke-linecap="round" stroke-linejoin="round" fill-opacity="0" stroke="rgb(77,15,10)" stroke-opacity="1" stroke-width="6" d=" M-18.74095344543457,-13.726073265075684 C-18.74095344543457,-13.726073265075684 -13.687999725341797,22 7.625,22.25 C30.125,22.5 12.613917350769043,-5.71372127532959 5.238917350769043,-22.713720321655273"/></g></g><g transform="matrix(0.9174686074256897,-0.07977225631475449,0.07991696149110794,0.9155887961387634,364.03399658203125,414.3270263671875)" opacity="1" style="display: block;"><g opacity="1" transform="matrix(1,0,0,1,0,0)"><path fill="rgb(244,34,110)" fill-opacity="1" d=" M-31.69099998474121,-17.339000701904297 C-31.69099998474121,-17.339000701904297 -3.5439999103546143,32.62300109863281 23.659000396728516,20.990999221801758 C51.4640007019043,9.10099983215332 -1.847000002861023,-22.746999740600586 -1.847000002861023,-22.746999740600586"/><path stroke-linecap="round" stroke-linejoin="round" fill-opacity="0" stroke="rgb(77,15,10)" stroke-opacity="1" stroke-width="6" d=" M-31.69099998474121,-17.339000701904297 C-31.69099998474121,-17.339000701904297 -3.5439999103546143,32.62300109863281 23.659000396728516,20.990999221801758 C51.4640007019043,9.10099983215332 -1.847000002861023,-22.746999740600586 -1.847000002861023,-22.746999740600586"/></g></g><g transform="matrix(0.9209310412406921,-0.004639757797122002,0.004630259238183498,0.919045627117157,97.05941772460938,322.3085632324219)" opacity="0.3" style="display: block;"><g opacity="1" transform="matrix(1,0,0,1,0,0)"><path fill="rgb(77,15,10)" fill-opacity="1" d=" M5.172999858856201,7.289999961853027 C2.506999969482422,12.527999877929688 -2.1689999103546143,16.011999130249023 -7.285999774932861,17.191999435424805 C-7.2220001220703125,15.432999610900879 -7.13700008392334,13.663999557495117 -7.021999835968018,11.89799976348877 C-6.375,1.9589999914169312 -4.798999786376953,-7.7789998054504395 -2.382999897003174,-17.191999435424805 C-2.2269999980926514,-17.121999740600586 -2.071000099182129,-17.052000045776367 -1.9259999990463257,-16.972000122070312 C6.599999904632568,-12.628999710083008 9.781000137329102,-1.7699999809265137 5.172999858856201,7.289999961853027z"/></g></g><g transform="matrix(0.9209310412406921,-0.004639757797122002,0.004630259238183498,0.919045627117157,344.87451171875,370.82330322265625)" opacity="0.3" style="display: block;"><g opacity="1" transform="matrix(1,0,0,1,0,0)"><path fill="rgb(77,15,10)" fill-opacity="1" d=" M-7.260000228881836,16.909000396728516 C1.534999966621399,20.684999465942383 11.913999557495117,16.176000595092773 15.923999786376953,6.836999893188477 C19.93400001525879,-2.502000093460083 16.05500030517578,-13.133000373840332 7.260000228881836,-16.909000396728516 C-1.534999966621399,-20.684999465942383 -11.913999557495117,-16.176000595092773 -15.923999786376953,-6.836999893188477 C-19.93400001525879,2.502000093460083 -16.05500030517578,13.133000373840332 -7.260000228881836,16.909000396728516z"/></g></g><g transform="matrix(0.9209310412406921,-0.004639757797122002,0.004630259238183498,0.919045627117157,6.031163692474365,44.069007873535156)" opacity="1" style="display: block;"><g opacity="1" transform="matrix(1,0,0,1,203.41600036621094,351.5660095214844)"><path stroke-linecap="round" stroke-linejoin="round" fill-opacity="0" stroke="rgb(77,15,10)" stroke-opacity="1" stroke-width="6" d=" M-32.10100173950195,-11.720000267028809 C-32.10100173950195,-11.720000267028809 6.184999942779541,-15.282999992370605 32.10100173950195,11.873000144958496"/></g><g opacity="1" transform="matrix(1,0,0,1,0,0)"><g opacity="1" transform="matrix(1,0,0,1,177.91700744628906,383.2749938964844)"><path fill="rgb(255,171,189)" fill-opacity="1" d=" M11.618000030517578,-40.194000244140625 C11.618000030517578,-40.194000244140625 -27.930437088012695,-22.439472198486328 -38.44597244262695,8.057092666625977 C-48.961509704589844,38.55365753173828 -11.874000549316406,59.339881896972656 12.211682319641113,47.10035705566406 C44.27508544921875,30.80678367614746 30.309999465942383,-9.097999572753906 54.361000061035156,-22.909000396728516 C54.361000061035156,-22.909000396728516 31.863000869750977,-43.667999267578125 11.618000030517578,-40.194000244140625z"/></g><g opacity="1" transform="matrix(1,0,0,1,175.67599487304688,393.6449890136719)"><path fill="rgb(255,199,214)" fill-opacity="1" d=" M52.119998931884766,-30.216999053955078 C31.68000030517578,-14.057000160217285 44.438316345214844,21.50523567199707 14.453681945800781,36.73242950439453 C-9.638855934143066,48.9668083190918 -46.67984390258789,28.194568634033203 -36.205902099609375,-2.3169076442718506 C-35.67697525024414,-3.857445001602173 -35.07413864135742,-5.35845947265625 -34.40275192260742,-6.807024002075195 C-34.40275192260742,-6.807024002075195 -34.393680572509766,-6.8098063468933105 -34.393680572509766,-6.8098063468933105 C-34.39427185058594,-6.112909317016602 -39.03828811645508,19.730205535888672 -6.9732890129089355,24.301828384399414 C26.724557876586914,29.106277465820312 30.489999771118164,-19.695999145507812 52.09000015258789,-30.20599937438965 C52.099998474121094,-30.20599937438965 52.11000061035156,-30.216999053955078 52.119998931884766,-30.216999053955078z"/></g><g opacity="1" transform="matrix(1,0,0,1,177.91700744628906,383.2749938964844)"><path stroke-linecap="round" stroke-linejoin="round" fill-opacity="0" stroke="rgb(77,15,10)" stroke-opacity="1" stroke-width="6" d=" M11.618000030517578,-40.194000244140625 C11.618000030517578,-40.194000244140625 -27.930437088012695,-22.439472198486328 -38.44597244262695,8.057092666625977 C-48.961509704589844,38.55365753173828 -11.874000549316406,59.339881896972656 12.211682319641113,47.10035705566406 C44.27508544921875,30.80678367614746 30.309999465942383,-9.097999572753906 54.361000061035156,-22.909000396728516 C54.361000061035156,-22.909000396728516 31.863000869750977,-43.667999267578125 11.618000030517578,-40.194000244140625z"/></g><g opacity="1" transform="matrix(1,0,0,1,191.23300170898438,358.5090026855469)"><path fill="rgb(255,171,189)" fill-opacity="1" d=" M19.917999267578125,-11.508999824523926 C19.917999267578125,-11.508999824523926 0.9904187321662903,-12.225475311279297 -12.122546195983887,19.8880672454834"/><path stroke-linecap="round" stroke-linejoin="round" fill-opacity="0" stroke="rgb(77,15,10)" stroke-opacity="1" stroke-width="6" d=" M19.917999267578125,-11.508999824523926 C19.917999267578125,-11.508999824523926 0.9904187321662903,-12.225475311279297 -12.122546195983887,19.8880672454834"/></g></g></g><g transform="matrix(0.24155831336975098,-0.03851909190416336,0.03949642926454544,0.24135875701904297,3.730630397796631,394.4678039550781)" opacity="1" style="display: none;"><g opacity="1" transform="matrix(1,0,0,1,99.79000091552734,408.2560119628906)"><path fill="rgb(45,211,249)" fill-opacity="1" d=" M13.52400016784668,-9.406999588012695 C13.52400016784668,-9.406999588012695 -18.788999557495117,-8.854000091552734 -12.779000282287598,6.396999835968018 C-8.045999526977539,18.408000946044922 13.52400016784668,-9.406999588012695 13.52400016784668,-9.406999588012695z"/><path stroke-linecap="butt" stroke-linejoin="miter" fill-opacity="0" stroke-miterlimit="10" stroke="rgb(0,170,198)" stroke-opacity="1" stroke-width="4" d=" M13.52400016784668,-9.406999588012695 C13.52400016784668,-9.406999588012695 -18.788999557495117,-8.854000091552734 -12.779000282287598,6.396999835968018 C-8.045999526977539,18.408000946044922 13.52400016784668,-9.406999588012695 13.52400016784668,-9.406999588012695z"/></g></g><g transform="matrix(0.001340039656497538,-0.0009737277287058532,0.0010003591887652874,0.0013122694799676538,132.06741333007812,486.1895751953125)" opacity="1" style="display: none;"><g opacity="1" transform="matrix(1,0,0,1,99.79000091552734,408.2560119628906)"><path fill="rgb(45,211,249)" fill-opacity="1" d=" M13.52400016784668,-9.406999588012695 C13.52400016784668,-9.406999588012695 -18.788999557495117,-8.854000091552734 -12.779000282287598,6.396999835968018 C-8.045999526977539,18.408000946044922 13.52400016784668,-9.406999588012695 13.52400016784668,-9.406999588012695z"/><path stroke-linecap="butt" stroke-linejoin="miter" fill-opacity="0" stroke-miterlimit="10" stroke="rgb(0,170,198)" stroke-opacity="1" stroke-width="4" d=" M13.52400016784668,-9.406999588012695 C13.52400016784668,-9.406999588012695 -18.788999557495117,-8.854000091552734 -12.779000282287598,6.396999835968018 C-8.045999526977539,18.408000946044922 13.52400016784668,-9.406999588012695 13.52400016784668,-9.406999588012695z"/></g></g><g transform="matrix(0.0011039151577278972,0.00011169957724632695,-0.00010581834067124873,0.0011201740708202124,24.802738189697266,440.46234130859375)" opacity="1" style="display: none;"><g opacity="1" transform="matrix(1,0,0,1,99.79000091552734,408.2560119628906)"><path fill="rgb(45,211,249)" fill-opacity="1" d=" M13.52400016784668,-9.406999588012695 C13.52400016784668,-9.406999588012695 -18.788999557495117,-8.854000091552734 -12.779000282287598,6.396999835968018 C-8.045999526977539,18.408000946044922 13.52400016784668,-9.406999588012695 13.52400016784668,-9.406999588012695z"/><path stroke-linecap="butt" stroke-linejoin="miter" fill-opacity="0" stroke-miterlimit="10" stroke="rgb(0,170,198)" stroke-opacity="1" stroke-width="4" d=" M13.52400016784668,-9.406999588012695 C13.52400016784668,-9.406999588012695 -18.788999557495117,-8.854000091552734 -12.779000282287598,6.396999835968018 C-8.045999526977539,18.408000946044922 13.52400016784668,-9.406999588012695 13.52400016784668,-9.406999588012695z"/></g></g><g transform="matrix(0.0014756866730749607,-0.0002838097861967981,0.00028204714180901647,0.001528252032585442,42.377662658691406,479.90008544921875)" opacity="1" style="display: none;"><g opacity="1" transform="matrix(1,0,0,1,99.79000091552734,408.2560119628906)"><path fill="rgb(45,211,249)" fill-opacity="1" d=" M13.52400016784668,-9.406999588012695 C13.52400016784668,-9.406999588012695 -18.788999557495117,-8.854000091552734 -12.779000282287598,6.396999835968018 C-8.045999526977539,18.408000946044922 13.52400016784668,-9.406999588012695 13.52400016784668,-9.406999588012695z"/><path stroke-linecap="butt" stroke-linejoin="miter" fill-opacity="0" stroke-miterlimit="10" stroke="rgb(0,170,198)" stroke-opacity="1" stroke-width="4" d=" M13.52400016784668,-9.406999588012695 C13.52400016784668,-9.406999588012695 -18.788999557495117,-8.854000091552734 -12.779000282287598,6.396999835968018 C-8.045999526977539,18.408000946044922 13.52400016784668,-9.406999588012695 13.52400016784668,-9.406999588012695z"/></g></g><g transform="matrix(0.0004436233430169523,-0.0002448742452543229,0.0002525510499253869,0.0004311522061470896,139.17613220214844,467.73040771484375)" opacity="1" style="display: none;"><g opacity="1" transform="matrix(1,0,0,1,99.79000091552734,408.2560119628906)"><path fill="rgb(45,211,249)" fill-opacity="1" d=" M13.52400016784668,-9.406999588012695 C13.52400016784668,-9.406999588012695 -18.788999557495117,-8.854000091552734 -12.779000282287598,6.396999835968018 C-8.045999526977539,18.408000946044922 13.52400016784668,-9.406999588012695 13.52400016784668,-9.406999588012695z"/><path stroke-linecap="butt" stroke-linejoin="miter" fill-opacity="0" stroke-miterlimit="10" stroke="rgb(0,170,198)" stroke-opacity="1" stroke-width="4" d=" M13.52400016784668,-9.406999588012695 C13.52400016784668,-9.406999588012695 -18.788999557495117,-8.854000091552734 -12.779000282287598,6.396999835968018 C-8.045999526977539,18.408000946044922 13.52400016784668,-9.406999588012695 13.52400016784668,-9.406999588012695z"/></g></g><g transform="matrix(0.0016373911639675498,0.0006355811492539942,-0.0006214214372448623,0.0017091180197894573,54.36012649536133,377.8966064453125)" opacity="1" style="display: none;"><g opacity="1" transform="matrix(1,0,0,1,99.79000091552734,408.2560119628906)"><path fill="rgb(45,211,249)" fill-opacity="1" d=" M13.52400016784668,-9.406999588012695 C13.52400016784668,-9.406999588012695 -18.788999557495117,-8.854000091552734 -12.779000282287598,6.396999835968018 C-8.045999526977539,18.408000946044922 13.52400016784668,-9.406999588012695 13.52400016784668,-9.406999588012695z"/><path stroke-linecap="butt" stroke-linejoin="miter" fill-opacity="0" stroke-miterlimit="10" stroke="rgb(0,170,198)" stroke-opacity="1" stroke-width="4" d=" M13.52400016784668,-9.406999588012695 C13.52400016784668,-9.406999588012695 -18.788999557495117,-8.854000091552734 -12.779000282287598,6.396999835968018 C-8.045999526977539,18.408000946044922 13.52400016784668,-9.406999588012695 13.52400016784668,-9.406999588012695z"/></g></g><g transform="matrix(0.24610599875450134,0.012592408806085587,-0.013034353032708168,0.2521849572658539,43.93838882446289,323.0148620605469)" opacity="1" style="display: none;"><g opacity="1" transform="matrix(1,0,0,1,99.79000091552734,408.2560119628906)"><path fill="rgb(45,211,249)" fill-opacity="1" d=" M13.52400016784668,-9.406999588012695 C13.52400016784668,-9.406999588012695 -18.788999557495117,-8.854000091552734 -12.779000282287598,6.396999835968018 C-8.045999526977539,18.408000946044922 13.52400016784668,-9.406999588012695 13.52400016784668,-9.406999588012695z"/><path stroke-linecap="butt" stroke-linejoin="miter" fill-opacity="0" stroke-miterlimit="10" stroke="rgb(0,170,198)" stroke-opacity="1" stroke-width="4" d=" M13.52400016784668,-9.406999588012695 C13.52400016784668,-9.406999588012695 -18.788999557495117,-8.854000091552734 -12.779000282287598,6.396999835968018 C-8.045999526977539,18.408000946044922 13.52400016784668,-9.406999588012695 13.52400016784668,-9.406999588012695z"/></g></g><g transform="matrix(0.001862231525592506,-0.0010321061126887798,0.0010385779896751046,0.0018319499213248491,145.87017822265625,455.60888671875)" opacity="1" style="display: none;"><g opacity="1" transform="matrix(1,0,0,1,99.79000091552734,408.2560119628906)"><path fill="rgb(45,211,249)" fill-opacity="1" d=" M13.52400016784668,-9.406999588012695 C13.52400016784668,-9.406999588012695 -18.788999557495117,-8.854000091552734 -12.779000282287598,6.396999835968018 C-8.045999526977539,18.408000946044922 13.52400016784668,-9.406999588012695 13.52400016784668,-9.406999588012695z"/><path stroke-linecap="butt" stroke-linejoin="miter" fill-opacity="0" stroke-miterlimit="10" stroke="rgb(0,170,198)" stroke-opacity="1" stroke-width="4" d=" M13.52400016784668,-9.406999588012695 C13.52400016784668,-9.406999588012695 -18.788999557495117,-8.854000091552734 -12.779000282287598,6.396999835968018 C-8.045999526977539,18.408000946044922 13.52400016784668,-9.406999588012695 13.52400016784668,-9.406999588012695z"/></g></g><g transform="matrix(0.0016233468195423484,0.0005069254548288882,-0.0004755343252327293,0.0017046090215444565,51.113426208496094,382.8953552246094)" opacity="1" style="display: none;"><g opacity="1" transform="matrix(1,0,0,1,99.79000091552734,408.2560119628906)"><path fill="rgb(45,211,249)" fill-opacity="1" d=" M13.52400016784668,-9.406999588012695 C13.52400016784668,-9.406999588012695 -18.788999557495117,-8.854000091552734 -12.779000282287598,6.396999835968018 C-8.045999526977539,18.408000946044922 13.52400016784668,-9.406999588012695 13.52400016784668,-9.406999588012695z"/><path stroke-linecap="butt" stroke-linejoin="miter" fill-opacity="0" stroke-miterlimit="10" stroke="rgb(0,170,198)" stroke-opacity="1" stroke-width="4" d=" M13.52400016784668,-9.406999588012695 C13.52400016784668,-9.406999588012695 -18.788999557495117,-8.854000091552734 -12.779000282287598,6.396999835968018 C-8.045999526977539,18.408000946044922 13.52400016784668,-9.406999588012695 13.52400016784668,-9.406999588012695z"/></g></g><g transform="matrix(0.0013745377073064446,0.00006396200478775427,-0.00006662021041847765,0.001348121790215373,53.9328498840332,423.4714660644531)" opacity="1" style="display: none;"><g opacity="1" transform="matrix(1,0,0,1,99.79000091552734,408.2560119628906)"><path fill="rgb(45,211,249)" fill-opacity="1" d=" M13.52400016784668,-9.406999588012695 C13.52400016784668,-9.406999588012695 -18.788999557495117,-8.854000091552734 -12.779000282287598,6.396999835968018 C-8.045999526977539,18.408000946044922 13.52400016784668,-9.406999588012695 13.52400016784668,-9.406999588012695z"/><path stroke-linecap="butt" stroke-linejoin="miter" fill-opacity="0" stroke-miterlimit="10" stroke="rgb(0,170,198)" stroke-opacity="1" stroke-width="4" d=" M13.52400016784668,-9.406999588012695 C13.52400016784668,-9.406999588012695 -18.788999557495117,-8.854000091552734 -12.779000282287598,6.396999835968018 C-8.045999526977539,18.408000946044922 13.52400016784668,-9.406999588012695 13.52400016784668,-9.406999588012695z"/></g></g><g transform="matrix(0.0013320413418114185,-0.0005218929727561772,0.0005100782727822661,0.0013469707919284701,152.13619995117188,443.4745178222656)" opacity="1" style="display: none;"><g opacity="1" transform="matrix(1,0,0,1,99.79000091552734,408.2560119628906)"><path fill="rgb(45,211,249)" fill-opacity="1" d=" M13.52400016784668,-9.406999588012695 C13.52400016784668,-9.406999588012695 -18.788999557495117,-8.854000091552734 -12.779000282287598,6.396999835968018 C-8.045999526977539,18.408000946044922 13.52400016784668,-9.406999588012695 13.52400016784668,-9.406999588012695z"/><path stroke-linecap="butt" stroke-linejoin="miter" fill-opacity="0" stroke-miterlimit="10" stroke="rgb(0,170,198)" stroke-opacity="1" stroke-width="4" d=" M13.52400016784668,-9.406999588012695 C13.52400016784668,-9.406999588012695 -18.788999557495117,-8.854000091552734 -12.779000282287598,6.396999835968018 C-8.045999526977539,18.408000946044922 13.52400016784668,-9.406999588012695 13.52400016784668,-9.406999588012695z"/></g></g><g transform="matrix(0.001322421245276928,0.00048672675620764494,-0.00047168112359941006,0.0013716535177081823,55.62737274169922,374.16436767578125)" opacity="1" style="display: none;"><g opacity="1" transform="matrix(1,0,0,1,99.79000091552734,408.2560119628906)"><path fill="rgb(45,211,249)" fill-opacity="1" d=" M13.52400016784668,-9.406999588012695 C13.52400016784668,-9.406999588012695 -18.788999557495117,-8.854000091552734 -12.779000282287598,6.396999835968018 C-8.045999526977539,18.408000946044922 13.52400016784668,-9.406999588012695 13.52400016784668,-9.406999588012695z"/><path stroke-linecap="butt" stroke-linejoin="miter" fill-opacity="0" stroke-miterlimit="10" stroke="rgb(0,170,198)" stroke-opacity="1" stroke-width="4" d=" M13.52400016784668,-9.406999588012695 C13.52400016784668,-9.406999588012695 -18.788999557495117,-8.854000091552734 -12.779000282287598,6.396999835968018 C-8.045999526977539,18.408000946044922 13.52400016784668,-9.406999588012695 13.52400016784668,-9.406999588012695z"/></g></g><g transform="matrix(0.001679606968536973,-0.00011357098264852539,0.0001049610145855695,0.0016310310456901789,47.28497314453125,444.2809753417969)" opacity="1" style="display: none;"><g opacity="1" transform="matrix(1,0,0,1,99.79000091552734,408.2560119628906)"><path fill="rgb(45,211,249)" fill-opacity="1" d=" M13.52400016784668,-9.406999588012695 C13.52400016784668,-9.406999588012695 -18.788999557495117,-8.854000091552734 -12.779000282287598,6.396999835968018 C-8.045999526977539,18.408000946044922 13.52400016784668,-9.406999588012695 13.52400016784668,-9.406999588012695z"/><path stroke-linecap="butt" stroke-linejoin="miter" fill-opacity="0" stroke-miterlimit="10" stroke="rgb(0,170,198)" stroke-opacity="1" stroke-width="4" d=" M13.52400016784668,-9.406999588012695 C13.52400016784668,-9.406999588012695 -18.788999557495117,-8.854000091552734 -12.779000282287598,6.396999835968018 C-8.045999526977539,18.408000946044922 13.52400016784668,-9.406999588012695 13.52400016784668,-9.406999588012695z"/></g></g><g transform="matrix(0.22328747808933258,-0.11464042216539383,0.11601150035858154,0.2174597680568695,81.58802032470703,373.40069580078125)" opacity="1" style="display: none;"><g opacity="1" transform="matrix(1,0,0,1,99.79000091552734,408.2560119628906)"><path fill="rgb(45,211,249)" fill-opacity="1" d=" M13.52400016784668,-9.406999588012695 C13.52400016784668,-9.406999588012695 -18.788999557495117,-8.854000091552734 -12.779000282287598,6.396999835968018 C-8.045999526977539,18.408000946044922 13.52400016784668,-9.406999588012695 13.52400016784668,-9.406999588012695z"/><path stroke-linecap="butt" stroke-linejoin="miter" fill-opacity="0" stroke-miterlimit="10" stroke="rgb(0,170,198)" stroke-opacity="1" stroke-width="4" d=" M13.52400016784668,-9.406999588012695 C13.52400016784668,-9.406999588012695 -18.788999557495117,-8.854000091552734 -12.779000282287598,6.396999835968018 C-8.045999526977539,18.408000946044922 13.52400016784668,-9.406999588012695 13.52400016784668,-9.406999588012695z"/></g></g><g transform="matrix(0.0015164674259722233,0.0004957388155162334,-0.000500434311106801,0.0015141211915761232,49.669551849365234,380.74249267578125)" opacity="1" style="display: none;"><g opacity="1" transform="matrix(1,0,0,1,99.79000091552734,408.2560119628906)"><path fill="rgb(45,211,249)" fill-opacity="1" d=" M13.52400016784668,-9.406999588012695 C13.52400016784668,-9.406999588012695 -18.788999557495117,-8.854000091552734 -12.779000282287598,6.396999835968018 C-8.045999526977539,18.408000946044922 13.52400016784668,-9.406999588012695 13.52400016784668,-9.406999588012695z"/><path stroke-linecap="butt" stroke-linejoin="miter" fill-opacity="0" stroke-miterlimit="10" stroke="rgb(0,170,198)" stroke-opacity="1" stroke-width="4" d=" M13.52400016784668,-9.406999588012695 C13.52400016784668,-9.406999588012695 -18.788999557495117,-8.854000091552734 -12.779000282287598,6.396999835968018 C-8.045999526977539,18.408000946044922 13.52400016784668,-9.406999588012695 13.52400016784668,-9.406999588012695z"/></g></g><g transform="matrix(0.0022032312117516994,0.0000211041569855297,-0.000025520070266793482,0.0022194278426468372,54.115779876708984,428.9314880371094)" opacity="1" style="display: none;"><g opacity="1" transform="matrix(1,0,0,1,99.79000091552734,408.2560119628906)"><path fill="rgb(45,211,249)" fill-opacity="1" d=" M13.52400016784668,-9.406999588012695 C13.52400016784668,-9.406999588012695 -18.788999557495117,-8.854000091552734 -12.779000282287598,6.396999835968018 C-8.045999526977539,18.408000946044922 13.52400016784668,-9.406999588012695 13.52400016784668,-9.406999588012695z"/><path stroke-linecap="butt" stroke-linejoin="miter" fill-opacity="0" stroke-miterlimit="10" stroke="rgb(0,170,198)" stroke-opacity="1" stroke-width="4" d=" M13.52400016784668,-9.406999588012695 C13.52400016784668,-9.406999588012695 -18.788999557495117,-8.854000091552734 -12.779000282287598,6.396999835968018 C-8.045999526977539,18.408000946044922 13.52400016784668,-9.406999588012695 13.52400016784668,-9.406999588012695z"/></g></g><g transform="matrix(0.9209310412406921,-0.004639757797122002,0.004630259238183498,0.919045627117157,223.61785888671875,320.5609436035156)" opacity="0.2" style="display: block;"><g opacity="1" transform="matrix(1,0,0,1,0,0)"><path fill="rgb(77,15,10)" fill-opacity="1" d=" M103.7030029296875,-1.8940000534057617 C103.7030029296875,-1.8940000534057617 -12.979999542236328,28.44300079345703 -103.7030029296875,-39.48400115966797 C-103.7030029296875,-39.48400115966797 -62.83300018310547,5.517000198364258 -62.83300018310547,5.517000198364258 C-62.83300018310547,5.517000198364258 -98.28099822998047,0.16699999570846558 -98.28099822998047,0.16699999570846558 C-98.28099822998047,0.16699999570846558 -34.58000183105469,53.8380012512207 66.57599639892578,35.76499938964844 C66.57599639892578,35.76499938964844 2.7660000324249268,29.356000900268555 2.7660000324249268,29.356000900268555 C2.7660000324249268,29.356000900268555 103.7030029296875,-1.8940000534057617 103.7030029296875,-1.8940000534057617z"/></g></g><g transform="matrix(0.9209310412406921,-0.004639757797122002,0.004630259238183498,0.919045627117157,6.030714511871338,44.06805419921875)" opacity="1" style="display: block;"><g opacity="1" transform="matrix(1,0,0,1,287.8340148925781,322.9200134277344)"><path fill="rgb(77,15,10)" fill-opacity="1" d=" M53.534000396728516,-19.736000061035156 C36.14099884033203,-15.380999565124512 18.850000381469727,-10.595000267028809 1.6979999542236328,-5.372000217437744 C-15.083000183105469,-0.2619999945163727 -32.39400100708008,4.945000171661377 -48.00899887084961,13.062999725341797 C-48.82500076293945,9.817999839782715 -49.63999938964844,6.573999881744385 -50.45600128173828,3.3289999961853027 C-27.641000747680664,3.381999969482422 -4.578000068664551,6.5929999351501465 17.673999786376953,11.47700023651123 C23.452999114990234,12.744999885559082 29.204999923706055,14.14900016784668 34.9010009765625,15.751999855041504 C38.22999954223633,16.687999725341797 49.48899841308594,18.33799934387207 51.1150016784668,21.725000381469727 C53.26599884033203,26.20599937438965 47.79600143432617,25.802000045776367 45.266998291015625,25.267000198364258 C39.20899963378906,23.985000610351562 33.27299880981445,22.106000900268555 27.201000213623047,20.836999893188477 C3.8010001182556152,15.944999694824219 -20.214000701904297,13.347999572753906 -44.12900161743164,13.489999771118164 C-47.141998291015625,13.508000373840332 -51.60100173950195,14.496000289916992 -54.027000427246094,12.069999694824219 C-59.08300018310547,7.013999938964844 -51.733001708984375,3.3940000534057617 -47.92300033569336,1.781000018119812 C-36.83700180053711,-2.9119999408721924 -25.19099998474121,-6.35699987411499 -13.625,-9.642000198364258 C-0.15199999511241913,-13.468000411987305 13.45300006866455,-16.851999282836914 27.0939998626709,-20.023000717163086 C34.125999450683594,-21.658000946044922 41.16999816894531,-23.242000579833984 48.23099899291992,-24.746999740600586 C50.55500030517578,-25.242000579833984 54.01300048828125,-26.71299934387207 55.40599822998047,-23.96299934387207 C56.2760009765625,-22.2450008392334 55.395999908447266,-20.336000442504883 53.534000396728516,-19.736000061035156z"/></g><g opacity="1" transform="matrix(1,0,0,1,281.45001220703125,302.07000732421875)"><path stroke-linecap="round" stroke-linejoin="round" fill-opacity="0" stroke="rgb(77,15,10)" stroke-opacity="1" stroke-width="4" d=" M-1.8450000286102295,0.7179999947547913 C-0.597000002861023,0.2329999953508377 0.6370000243186951,-0.24699999392032623 1.8450000286102295,-0.7179999947547913"/></g><g opacity="1" transform="matrix(1,0,0,1,258.5190124511719,310.9530029296875)"><path stroke-linecap="round" stroke-linejoin="round" fill-opacity="0" stroke="rgb(77,15,10)" stroke-opacity="1" stroke-width="4" d=" M-12.965999603271484,5.01200008392334 C-12.965999603271484,5.01200008392334 -0.37299999594688416,0.1599999964237213 12.965999603271484,-5.01200008392334"/></g><g opacity="1" transform="matrix(1,0,0,1,266.97198486328125,346.7699890136719)"><path stroke-linecap="round" stroke-linejoin="round" fill-opacity="0" stroke="rgb(77,15,10)" stroke-opacity="1" stroke-width="4" d=" M-20.2549991607666,-4.4670000076293945 C-20.2549991607666,-4.4670000076293945 -3.6589999198913574,-4.714000225067139 20.2549991607666,4.4679999351501465"/></g><g opacity="0.3" transform="matrix(1,0,0,1,283.0820007324219,324.4159851074219)"><path fill="rgb(77,15,10)" fill-opacity="1" d=" M37.01599884033203,-19.263999938964844 C37.01599884033203,-19.263999938964844 -10.189000129699707,0.10499999672174454 -1.7009999752044678,2.7839999198913574 C22.804000854492188,10.517999649047852 33.76100158691406,13.642999649047852 45.564998626708984,19.263999938964844 C45.564998626708984,19.263999938964844 -20.726999282836914,3.2060000896453857 -45.564998626708984,6.9730000495910645 C-45.564998626708984,6.9730000495910645 13.817000389099121,-15.26099967956543 37.01599884033203,-19.263999938964844z"/></g></g><g transform="matrix(0.9209310412406921,-0.004639757797122002,0.004630259238183498,0.919045627117157,6.029759883880615,44.06864547729492)" opacity="1" style="display: block;"><g opacity="1" transform="matrix(1,0,0,1,148.7550048828125,290.5710144042969)"><path fill="rgb(77,15,10)" fill-opacity="1" d=" M-15.569000244140625,-30.12700080871582 C1.5809999704360962,-13.864999771118164 19.614999771118164,2.23799991607666 35.2140007019043,20.018999099731445 C41.00199890136719,26.617000579833984 36.803001403808594,33.72600173950195 28.417999267578125,29.875 C19.3799991607666,25.725000381469727 10.270999908447266,22.0049991607666 0.7879999876022339,18.968000411987305 C-8.968000411987305,15.843999862670898 -18.908000946044922,13.305000305175781 -28.94300079345703,11.255999565124512 C-31.332000732421875,10.767999649047852 -38.69900131225586,10.711999893188477 -37.81999969482422,6.459000110626221 C-36.994998931884766,2.4670000076293945 -30.618999481201172,4.49399995803833 -27.892000198364258,4.835999965667725 C-6.678999900817871,7.495999813079834 15.711000442504883,11.699000358581543 35.29100036621094,20.604000091552734 C32.99800109863281,23.54199981689453 30.707000732421875,26.479999542236328 28.413999557495117,29.417999267578125 C18.827999114990234,17.52400016784668 8.75,6.0279998779296875 -1.3880000114440918,-5.394999980926514 C-6.331999778747559,-10.965999603271484 -11.307999610900879,-16.510000228881836 -16.31100082397461,-22.02899932861328 C-17.433000564575195,-23.266000747680664 -20.399999618530273,-25.395999908447266 -20.570999145507812,-27.322999954223633 C-20.80500030517578,-29.961000442504883 -17.820999145507812,-32.250999450683594 -15.569000244140625,-30.12700080871582z"/></g><g opacity="1" transform="matrix(1,0,0,1,172.88999938964844,289.2860107421875)"><path stroke-linecap="round" stroke-linejoin="round" fill-opacity="0" stroke="rgb(77,15,10)" stroke-opacity="1" stroke-width="4" d=" M-9.91100025177002,-11.637999534606934 C-9.91100025177002,-11.637999534606934 1.5570000410079956,-1.2350000143051147 9.91100025177002,11.637999534606934"/></g><g opacity="1" transform="matrix(1,0,0,1,157.9149932861328,320.66400146484375)"><path stroke-linecap="round" stroke-linejoin="round" fill-opacity="0" stroke="rgb(77,15,10)" stroke-opacity="1" stroke-width="4" d=" M-7.940999984741211,-2.5840001106262207 C-2.9019999504089355,-1.4110000133514404 2.7929999828338623,0.25999999046325684 7.940999984741211,2.5840001106262207"/></g><g opacity="1" transform="matrix(1,0,0,1,138.41200256347656,315.9800109863281)"><path stroke-linecap="round" stroke-linejoin="round" fill-opacity="0" stroke="rgb(77,15,10)" stroke-opacity="1" stroke-width="4" d=" M-2.6559998989105225,-0.36000001430511475 C-2.6559998989105225,-0.36000001430511475 -0.5929999947547913,-0.15800000727176666 2.6559998989105225,0.36000001430511475"/></g><g opacity="0.3" transform="matrix(1,0,0,1,145.44200134277344,289.69500732421875)"><path fill="rgb(77,15,10)" fill-opacity="1" d=" M-12.123000144958496,-24.827999114990234 C-12.123000144958496,-24.827999114990234 7.7769999504089355,1.9980000257492065 7.941999912261963,7.8429999351501465 C8.072999954223633,12.46399974822998 -17.41200065612793,9.008999824523926 -31.6299991607666,7.910999774932861 C-31.6299991607666,7.910999774932861 31.6299991607666,24.827999114990234 31.6299991607666,24.827999114990234 C31.6299991607666,24.827999114990234 7.071000099182129,-9.64900016784668 -12.123000144958496,-24.827999114990234z"/></g></g><g transform="matrix(0.9209310412406921,-0.004639333579689264,0.004629834089428186,0.919045627117157,242.854248046875,304.8515625)" opacity="1" style="display: block;"><g opacity="1" transform="matrix(1,0,0,1,0,0)"><path fill="rgb(77,15,10)" fill-opacity="1" d=" M5.876999855041504,6.804999828338623 C-1.4980000257492065,13.173999786376953 -10.107000350952148,15.289999961853027 -13.352999687194824,11.531999588012695 C-16.599000930786133,7.77400016784668 -13.251999855041504,-0.4359999895095825 -5.876999855041504,-6.804999828338623 C1.4980000257492065,-13.173999786376953 10.107000350952148,-15.289999961853027 13.352999687194824,-11.531999588012695 C16.599000930786133,-7.77400016784668 13.251999855041504,0.4359999895095825 5.876999855041504,6.804999828338623z"/></g></g><g transform="matrix(0.9209310412406921,-0.004640236031264067,0.004630738403648138,0.919045627117157,179.5340576171875,293.5301208496094)" opacity="1" style="display: block;"><g opacity="1" transform="matrix(1,0,0,1,0,0)"><path fill="rgb(77,15,10)" fill-opacity="1" d=" M8.024999618530273,-2.871000051498413 C11.13599967956543,5.824999809265137 10.064000129699707,14.16100025177002 5.631999969482422,15.746000289916992 C1.2000000476837158,17.33099937438965 -4.914000034332275,11.567000389099121 -8.024999618530273,2.871000051498413 C-11.13599967956543,-5.824999809265137 -10.064000129699707,-14.16100025177002 -5.631999969482422,-15.746000289916992 C-1.2000000476837158,-17.33099937438965 4.914000034332275,-11.567000389099121 8.024999618530273,-2.871000051498413z"/></g></g><g transform="matrix(0.9209310412406921,-0.004639757797122002,0.004630259238183498,0.919045627117157,6.030546188354492,44.06886672973633)" opacity="1" style="display: block;"><g opacity="1" transform="matrix(1,0,0,1,0,0)"><g opacity="1" transform="matrix(1,0,0,1,298.8949890136719,117.89099884033203)"><path fill="rgb(29,214,214)" fill-opacity="1" d=" M-14.892000198364258,103.00599670410156 C-27.645000457763672,106.90599822998047 -45.50600051879883,102.42900085449219 -53.7140007019043,100.13500213623047 C-39.73899841308594,91.50199890136719 12.696988105773926,59.76365661621094 29.588054656982422,-1.3120765686035156 C51.79509353637695,-81.6258316040039 -2.161526918411255,-77.86895751953125 3.4967901706695557,-95.98490142822266 C9.155107498168945,-114.1008529663086 42.802120208740234,-95.81018829345703 48.386436462402344,-54.99964141845703 C53.71976089477539,-16.001296997070312 40.83100128173828,44.314998626708984 -14.892000198364258,103.00599670410156z"/></g><g opacity="1" transform="matrix(1,0,0,1,310.3890075683594,117.89099884033203)"><path fill="rgb(67,255,250)" fill-opacity="1" d=" M-26.38599967956543,103.00900268554688 C-31.20400047302246,104.48100280761719 -36.75,104.76000213623047 -42.22200012207031,104.40399932861328 C-41.57500076293945,103.83100128173828 -40.90800094604492,103.25800323486328 -40.23099899291992,102.68499755859375 C41.5,33.20399856567383 37.106178283691406,-39.069602966308594 25.798931121826172,-68.62370300292969 C14.492459297180176,-98.16732788085938 -6.802542686462402,-98.65362548828125 -6.802542686462402,-98.65362548828125 C1.2803220748901367,-112.01078796386719 31.615737915039062,-93.56207275390625 36.89643478393555,-54.996768951416016 C42.22150421142578,-16.00503921508789 29.334999084472656,44.31999969482422 -26.38599967956543,103.00900268554688z"/></g><g opacity="1" transform="matrix(1,0,0,1,299.052001953125,117.80899810791016)"><path stroke-linecap="round" stroke-linejoin="round" fill-opacity="0" stroke="rgb(0,114,111)" stroke-opacity="1" stroke-width="6" d=" M-10.984999656677246,103.0790023803711 C-23.738000869750977,106.97899627685547 -45.45399856567383,101.6259994506836 -53.6619987487793,99.33200073242188 C-39.6870002746582,90.6989974975586 12.540117263793945,59.846527099609375 29.431184768676758,-1.2292060852050781 C51.638221740722656,-81.54296112060547 -2.3176562786102295,-77.78695678710938 3.340660810470581,-95.90290069580078 C8.998977661132812,-114.01885223388672 42.645992279052734,-95.72818756103516 48.23030471801758,-54.917640686035156 C53.56363296508789,-15.919297218322754 44.737998962402344,44.38800048828125 -10.984999656677246,103.0790023803711z"/></g></g><g opacity="1" transform="matrix(1,0,0,1,268.92999267578125,216.4040069580078)"><path stroke-linecap="round" stroke-linejoin="round" fill-opacity="0" stroke="rgb(77,15,10)" stroke-opacity="1" stroke-width="6" d=" M-34.71699905395508,-6.7729997634887695 C-30.947999954223633,-3.253999948501587 -26.642000198364258,-0.5889999866485596 -22.079999923706055,1.406999945640564 C-5.630000114440918,8.61400032043457 14.291999816894531,7.065000057220459 25.628000259399414,5.2769999504089355 C31.218000411987305,4.38700008392334 34.71699905395508,3.440999984741211 34.71699905395508,3.440999984741211"/></g></g></g></svg>