<svg width="30" height="30" viewBox="0 0 30 30" fill="none" xmlns="http://www.w3.org/2000/svg">
<path d="M15 5.16808e-08C12.0333 5.16808e-08 9.13319 0.879734 6.66645 2.52796C4.19972 4.17618 2.27713 6.51885 1.14181 9.25974C0.00649926 12.0006 -0.290551 15.0166 0.288228 17.9263C0.867006 20.8361 2.29562 23.5088 4.3934 25.6066C6.49119 27.7044 9.16394 29.133 12.0737 29.7118C14.9834 30.2905 17.9994 29.9935 20.7403 28.8582C23.4811 27.7229 25.8238 25.8003 27.472 23.3335C29.1203 20.8668 30 17.9667 30 15C30.0002 13.0301 29.6123 11.0795 28.8585 9.25955C28.1048 7.43959 26.9999 5.78594 25.607 4.39303C24.2141 3.00012 22.5604 1.89524 20.7404 1.14147C18.9205 0.387711 16.9699 -0.000163468 15 5.16808e-08ZM19.7693 22.7287C19.7131 22.8687 19.6277 22.9951 19.5187 23.0993C19.4097 23.2036 19.2797 23.2834 19.1374 23.3333C18.9951 23.3833 18.8437 23.4022 18.6935 23.3888C18.5432 23.3755 18.3976 23.3302 18.2663 23.2559L14.1943 20.0919L11.5808 22.503C11.5201 22.5478 11.4492 22.5766 11.3745 22.5868C11.2998 22.597 11.2237 22.5883 11.1533 22.5614L11.6543 18.0787L11.6703 18.0914L11.6806 18.0029C11.6806 18.0029 19.0081 11.3317 19.3066 11.0474C19.6088 10.7639 19.5091 10.7024 19.5091 10.7024C19.5263 10.3566 18.9668 10.7024 18.9668 10.7024L9.25801 16.9485L5.21477 15.5715C5.21477 15.5715 4.59377 15.3487 4.53527 14.859C4.47377 14.373 5.23501 14.109 5.23501 14.109L21.3105 7.72273C21.3105 7.72273 22.632 7.13395 22.632 8.109L19.7693 22.7287Z" fill="black"/>
</svg>
